<mxfile host="app.diagrams.net" modified="2023-10-24T16:13:01.678Z" agent="Mozilla/5.0 (Windows NT 10.0; Win64; x64) AppleWebKit/537.36 (KHTML, like Gecko) Chrome/118.0.0.0 Safari/537.36" etag="74Lcln4iF7_0sK5Vs7OR" version="22.0.6" type="device">
  <diagram name="Page-1" id="e7e014a7-5840-1c2e-5031-d8a46d1fe8dd">
    <mxGraphModel dx="2231" dy="1157" grid="1" gridSize="10" guides="1" tooltips="1" connect="1" arrows="1" fold="1" page="1" pageScale="1" pageWidth="1169" pageHeight="826" background="none" math="0" shadow="0">
      <root>
        <mxCell id="0" />
        <mxCell id="1" parent="0" />
        <mxCell id="Pa0vinby4Z_l4pB0LRb9-43" style="edgeStyle=orthogonalEdgeStyle;rounded=0;orthogonalLoop=1;jettySize=auto;html=1;entryX=0.5;entryY=0;entryDx=0;entryDy=0;" edge="1" parent="1" source="Pa0vinby4Z_l4pB0LRb9-41" target="Pa0vinby4Z_l4pB0LRb9-42">
          <mxGeometry relative="1" as="geometry" />
        </mxCell>
        <mxCell id="Pa0vinby4Z_l4pB0LRb9-41" value="Send error message" style="rounded=1;whiteSpace=wrap;html=1;" vertex="1" parent="1">
          <mxGeometry x="1442" y="210" width="120" height="60" as="geometry" />
        </mxCell>
        <mxCell id="Pa0vinby4Z_l4pB0LRb9-42" value="" style="ellipse;shape=endState;fillColor=#000000;strokeColor=#ff0000" vertex="1" parent="1">
          <mxGeometry x="1798" y="380" width="30" height="30" as="geometry" />
        </mxCell>
        <mxCell id="Pa0vinby4Z_l4pB0LRb9-48" style="edgeStyle=orthogonalEdgeStyle;rounded=0;orthogonalLoop=1;jettySize=auto;html=1;exitX=1;exitY=0.5;exitDx=0;exitDy=0;entryX=0;entryY=0.5;entryDx=0;entryDy=0;" edge="1" parent="1" source="Pa0vinby4Z_l4pB0LRb9-44" target="Pa0vinby4Z_l4pB0LRb9-47">
          <mxGeometry relative="1" as="geometry" />
        </mxCell>
        <mxCell id="Pa0vinby4Z_l4pB0LRb9-44" value="Receive request &lt;br&gt;input" style="rounded=1;whiteSpace=wrap;html=1;" vertex="1" parent="1">
          <mxGeometry x="111" y="365" width="120" height="60" as="geometry" />
        </mxCell>
        <mxCell id="Pa0vinby4Z_l4pB0LRb9-46" style="edgeStyle=orthogonalEdgeStyle;rounded=0;orthogonalLoop=1;jettySize=auto;html=1;exitX=1;exitY=0.5;exitDx=0;exitDy=0;entryX=0;entryY=0.5;entryDx=0;entryDy=0;" edge="1" parent="1" source="Pa0vinby4Z_l4pB0LRb9-45" target="Pa0vinby4Z_l4pB0LRb9-44">
          <mxGeometry relative="1" as="geometry" />
        </mxCell>
        <mxCell id="Pa0vinby4Z_l4pB0LRb9-45" value="" style="ellipse;shape=startState;fillColor=#000000;strokeColor=#ff0000;" vertex="1" parent="1">
          <mxGeometry x="40" y="380" width="30" height="30" as="geometry" />
        </mxCell>
        <mxCell id="Pa0vinby4Z_l4pB0LRb9-49" style="edgeStyle=orthogonalEdgeStyle;rounded=0;orthogonalLoop=1;jettySize=auto;html=1;exitX=0.5;exitY=0;exitDx=0;exitDy=0;entryX=0;entryY=0.5;entryDx=0;entryDy=0;" edge="1" parent="1" source="Pa0vinby4Z_l4pB0LRb9-47" target="Pa0vinby4Z_l4pB0LRb9-41">
          <mxGeometry relative="1" as="geometry" />
        </mxCell>
        <mxCell id="Pa0vinby4Z_l4pB0LRb9-77" value="[inputError]" style="edgeLabel;html=1;align=center;verticalAlign=middle;resizable=0;points=[];" vertex="1" connectable="0" parent="Pa0vinby4Z_l4pB0LRb9-49">
          <mxGeometry x="-0.8776" y="-4" relative="1" as="geometry">
            <mxPoint x="-39" y="-5" as="offset" />
          </mxGeometry>
        </mxCell>
        <mxCell id="Pa0vinby4Z_l4pB0LRb9-52" style="edgeStyle=orthogonalEdgeStyle;rounded=0;orthogonalLoop=1;jettySize=auto;html=1;exitX=1;exitY=0.5;exitDx=0;exitDy=0;entryX=0;entryY=0.5;entryDx=0;entryDy=0;" edge="1" parent="1" source="Pa0vinby4Z_l4pB0LRb9-47" target="Pa0vinby4Z_l4pB0LRb9-51">
          <mxGeometry relative="1" as="geometry" />
        </mxCell>
        <mxCell id="Pa0vinby4Z_l4pB0LRb9-68" value="[inputOk]" style="edgeLabel;html=1;align=center;verticalAlign=middle;resizable=0;points=[];" vertex="1" connectable="0" parent="Pa0vinby4Z_l4pB0LRb9-52">
          <mxGeometry x="-0.1429" y="3" relative="1" as="geometry">
            <mxPoint y="-12" as="offset" />
          </mxGeometry>
        </mxCell>
        <mxCell id="Pa0vinby4Z_l4pB0LRb9-47" value="" style="rhombus;whiteSpace=wrap;html=1;" vertex="1" parent="1">
          <mxGeometry x="291" y="375" width="30" height="40" as="geometry" />
        </mxCell>
        <mxCell id="Pa0vinby4Z_l4pB0LRb9-57" style="edgeStyle=orthogonalEdgeStyle;rounded=0;orthogonalLoop=1;jettySize=auto;html=1;exitX=1;exitY=0.5;exitDx=0;exitDy=0;entryX=0;entryY=0.5;entryDx=0;entryDy=0;" edge="1" parent="1" source="Pa0vinby4Z_l4pB0LRb9-51" target="Pa0vinby4Z_l4pB0LRb9-53">
          <mxGeometry relative="1" as="geometry" />
        </mxCell>
        <mxCell id="Pa0vinby4Z_l4pB0LRb9-80" value="[defaultEmissionFactor]" style="edgeLabel;html=1;align=center;verticalAlign=middle;resizable=0;points=[];" vertex="1" connectable="0" parent="Pa0vinby4Z_l4pB0LRb9-57">
          <mxGeometry x="-0.244" y="-2" relative="1" as="geometry">
            <mxPoint x="19" y="-17" as="offset" />
          </mxGeometry>
        </mxCell>
        <mxCell id="Pa0vinby4Z_l4pB0LRb9-87" style="edgeStyle=orthogonalEdgeStyle;rounded=0;orthogonalLoop=1;jettySize=auto;html=1;entryX=0.5;entryY=1;entryDx=0;entryDy=0;" edge="1" parent="1" source="Pa0vinby4Z_l4pB0LRb9-51" target="Pa0vinby4Z_l4pB0LRb9-83">
          <mxGeometry relative="1" as="geometry">
            <Array as="points">
              <mxPoint x="426" y="470" />
              <mxPoint x="997" y="470" />
            </Array>
          </mxGeometry>
        </mxCell>
        <mxCell id="Pa0vinby4Z_l4pB0LRb9-88" value="[customEmissionFactor]" style="edgeLabel;html=1;align=center;verticalAlign=middle;resizable=0;points=[];" vertex="1" connectable="0" parent="Pa0vinby4Z_l4pB0LRb9-87">
          <mxGeometry x="0.0348" y="1" relative="1" as="geometry">
            <mxPoint x="-11" y="-13" as="offset" />
          </mxGeometry>
        </mxCell>
        <mxCell id="Pa0vinby4Z_l4pB0LRb9-51" value="" style="rhombus;whiteSpace=wrap;html=1;" vertex="1" parent="1">
          <mxGeometry x="411" y="375" width="30" height="40" as="geometry" />
        </mxCell>
        <mxCell id="Pa0vinby4Z_l4pB0LRb9-59" style="edgeStyle=orthogonalEdgeStyle;rounded=0;orthogonalLoop=1;jettySize=auto;html=1;exitX=1;exitY=0.5;exitDx=0;exitDy=0;" edge="1" parent="1" source="Pa0vinby4Z_l4pB0LRb9-53" target="Pa0vinby4Z_l4pB0LRb9-58">
          <mxGeometry relative="1" as="geometry" />
        </mxCell>
        <mxCell id="Pa0vinby4Z_l4pB0LRb9-53" value="Look for emission factor in DB" style="rounded=1;whiteSpace=wrap;html=1;" vertex="1" parent="1">
          <mxGeometry x="602" y="365" width="120" height="60" as="geometry" />
        </mxCell>
        <mxCell id="Pa0vinby4Z_l4pB0LRb9-79" style="edgeStyle=orthogonalEdgeStyle;rounded=0;orthogonalLoop=1;jettySize=auto;html=1;exitX=1;exitY=0.5;exitDx=0;exitDy=0;" edge="1" parent="1" source="Pa0vinby4Z_l4pB0LRb9-56" target="Pa0vinby4Z_l4pB0LRb9-63">
          <mxGeometry relative="1" as="geometry" />
        </mxCell>
        <mxCell id="Pa0vinby4Z_l4pB0LRb9-56" value="Convert input to emission factor units" style="rounded=1;whiteSpace=wrap;html=1;" vertex="1" parent="1">
          <mxGeometry x="1145" y="490" width="120" height="60" as="geometry" />
        </mxCell>
        <mxCell id="Pa0vinby4Z_l4pB0LRb9-60" style="edgeStyle=orthogonalEdgeStyle;rounded=0;orthogonalLoop=1;jettySize=auto;html=1;exitX=0.5;exitY=0;exitDx=0;exitDy=0;" edge="1" parent="1" source="Pa0vinby4Z_l4pB0LRb9-58" target="Pa0vinby4Z_l4pB0LRb9-41">
          <mxGeometry relative="1" as="geometry" />
        </mxCell>
        <mxCell id="Pa0vinby4Z_l4pB0LRb9-61" value="[emissionFactorNotFound]" style="edgeLabel;html=1;align=center;verticalAlign=middle;resizable=0;points=[];" vertex="1" connectable="0" parent="Pa0vinby4Z_l4pB0LRb9-60">
          <mxGeometry x="-0.2625" y="1" relative="1" as="geometry">
            <mxPoint x="1" y="-11" as="offset" />
          </mxGeometry>
        </mxCell>
        <mxCell id="Pa0vinby4Z_l4pB0LRb9-85" style="edgeStyle=orthogonalEdgeStyle;rounded=0;orthogonalLoop=1;jettySize=auto;html=1;exitX=1;exitY=0.5;exitDx=0;exitDy=0;entryX=0;entryY=0.5;entryDx=0;entryDy=0;" edge="1" parent="1" source="Pa0vinby4Z_l4pB0LRb9-58" target="Pa0vinby4Z_l4pB0LRb9-83">
          <mxGeometry relative="1" as="geometry" />
        </mxCell>
        <mxCell id="Pa0vinby4Z_l4pB0LRb9-86" value="[emissionFactorFound]" style="edgeLabel;html=1;align=center;verticalAlign=middle;resizable=0;points=[];" vertex="1" connectable="0" parent="Pa0vinby4Z_l4pB0LRb9-85">
          <mxGeometry x="-0.08" relative="1" as="geometry">
            <mxPoint y="-15" as="offset" />
          </mxGeometry>
        </mxCell>
        <mxCell id="Pa0vinby4Z_l4pB0LRb9-58" value="" style="rhombus;whiteSpace=wrap;html=1;" vertex="1" parent="1">
          <mxGeometry x="772" y="375" width="30" height="40" as="geometry" />
        </mxCell>
        <mxCell id="Pa0vinby4Z_l4pB0LRb9-71" style="edgeStyle=orthogonalEdgeStyle;rounded=0;orthogonalLoop=1;jettySize=auto;html=1;entryX=0;entryY=0.5;entryDx=0;entryDy=0;" edge="1" parent="1" source="Pa0vinby4Z_l4pB0LRb9-62" target="Pa0vinby4Z_l4pB0LRb9-63">
          <mxGeometry relative="1" as="geometry" />
        </mxCell>
        <mxCell id="Pa0vinby4Z_l4pB0LRb9-72" value="[inputUnitsOk]" style="edgeLabel;html=1;align=center;verticalAlign=middle;resizable=0;points=[];" vertex="1" connectable="0" parent="Pa0vinby4Z_l4pB0LRb9-71">
          <mxGeometry x="0.04" y="-1" relative="1" as="geometry">
            <mxPoint x="-53" y="-16" as="offset" />
          </mxGeometry>
        </mxCell>
        <mxCell id="Pa0vinby4Z_l4pB0LRb9-73" style="edgeStyle=orthogonalEdgeStyle;rounded=0;orthogonalLoop=1;jettySize=auto;html=1;exitX=0.5;exitY=1;exitDx=0;exitDy=0;entryX=0;entryY=0.5;entryDx=0;entryDy=0;" edge="1" parent="1" source="Pa0vinby4Z_l4pB0LRb9-62" target="Pa0vinby4Z_l4pB0LRb9-56">
          <mxGeometry relative="1" as="geometry" />
        </mxCell>
        <mxCell id="Pa0vinby4Z_l4pB0LRb9-75" value="[else]" style="edgeLabel;html=1;align=center;verticalAlign=middle;resizable=0;points=[];rotation=0;" vertex="1" connectable="0" parent="Pa0vinby4Z_l4pB0LRb9-73">
          <mxGeometry x="-0.7882" y="-2" relative="1" as="geometry">
            <mxPoint x="23" y="-4" as="offset" />
          </mxGeometry>
        </mxCell>
        <mxCell id="Pa0vinby4Z_l4pB0LRb9-62" value="" style="rhombus;whiteSpace=wrap;html=1;" vertex="1" parent="1">
          <mxGeometry x="1059" y="375" width="30" height="40" as="geometry" />
        </mxCell>
        <mxCell id="Pa0vinby4Z_l4pB0LRb9-65" style="edgeStyle=orthogonalEdgeStyle;rounded=0;orthogonalLoop=1;jettySize=auto;html=1;exitX=1;exitY=0.5;exitDx=0;exitDy=0;entryX=0;entryY=0.5;entryDx=0;entryDy=0;" edge="1" parent="1" source="Pa0vinby4Z_l4pB0LRb9-63" target="Pa0vinby4Z_l4pB0LRb9-64">
          <mxGeometry relative="1" as="geometry" />
        </mxCell>
        <mxCell id="Pa0vinby4Z_l4pB0LRb9-63" value="Calculate emissions" style="rounded=1;whiteSpace=wrap;html=1;" vertex="1" parent="1">
          <mxGeometry x="1298" y="365" width="120" height="60" as="geometry" />
        </mxCell>
        <mxCell id="Pa0vinby4Z_l4pB0LRb9-89" style="edgeStyle=orthogonalEdgeStyle;rounded=0;orthogonalLoop=1;jettySize=auto;html=1;exitX=0.5;exitY=0;exitDx=0;exitDy=0;entryX=0.75;entryY=1;entryDx=0;entryDy=0;" edge="1" parent="1" source="Pa0vinby4Z_l4pB0LRb9-64" target="Pa0vinby4Z_l4pB0LRb9-41">
          <mxGeometry relative="1" as="geometry" />
        </mxCell>
        <mxCell id="Pa0vinby4Z_l4pB0LRb9-91" value="[calculationError]" style="edgeLabel;html=1;align=center;verticalAlign=middle;resizable=0;points=[];" vertex="1" connectable="0" parent="Pa0vinby4Z_l4pB0LRb9-89">
          <mxGeometry x="-0.1657" y="-1" relative="1" as="geometry">
            <mxPoint x="49" y="-31" as="offset" />
          </mxGeometry>
        </mxCell>
        <mxCell id="Pa0vinby4Z_l4pB0LRb9-94" style="edgeStyle=orthogonalEdgeStyle;rounded=0;orthogonalLoop=1;jettySize=auto;html=1;exitX=1;exitY=0.5;exitDx=0;exitDy=0;entryX=0;entryY=0.5;entryDx=0;entryDy=0;" edge="1" parent="1" source="Pa0vinby4Z_l4pB0LRb9-64" target="Pa0vinby4Z_l4pB0LRb9-93">
          <mxGeometry relative="1" as="geometry" />
        </mxCell>
        <mxCell id="Pa0vinby4Z_l4pB0LRb9-64" value="" style="rhombus;whiteSpace=wrap;html=1;" vertex="1" parent="1">
          <mxGeometry x="1517" y="375" width="30" height="40" as="geometry" />
        </mxCell>
        <mxCell id="Pa0vinby4Z_l4pB0LRb9-84" style="edgeStyle=orthogonalEdgeStyle;rounded=0;orthogonalLoop=1;jettySize=auto;html=1;" edge="1" parent="1" source="Pa0vinby4Z_l4pB0LRb9-83" target="Pa0vinby4Z_l4pB0LRb9-62">
          <mxGeometry relative="1" as="geometry" />
        </mxCell>
        <mxCell id="Pa0vinby4Z_l4pB0LRb9-96" value="[True]" style="edgeLabel;html=1;align=center;verticalAlign=middle;resizable=0;points=[];" vertex="1" connectable="0" parent="Pa0vinby4Z_l4pB0LRb9-84">
          <mxGeometry x="-0.0437" y="1" relative="1" as="geometry">
            <mxPoint x="-5" y="-14" as="offset" />
          </mxGeometry>
        </mxCell>
        <mxCell id="Pa0vinby4Z_l4pB0LRb9-83" value="" style="rhombus;whiteSpace=wrap;html=1;" vertex="1" parent="1">
          <mxGeometry x="982" y="375" width="30" height="40" as="geometry" />
        </mxCell>
        <mxCell id="Pa0vinby4Z_l4pB0LRb9-95" style="edgeStyle=orthogonalEdgeStyle;rounded=0;orthogonalLoop=1;jettySize=auto;html=1;exitX=1;exitY=0.5;exitDx=0;exitDy=0;entryX=0;entryY=0.5;entryDx=0;entryDy=0;" edge="1" parent="1" source="Pa0vinby4Z_l4pB0LRb9-93" target="Pa0vinby4Z_l4pB0LRb9-42">
          <mxGeometry relative="1" as="geometry" />
        </mxCell>
        <mxCell id="Pa0vinby4Z_l4pB0LRb9-93" value="Send emission calculation result" style="rounded=1;whiteSpace=wrap;html=1;" vertex="1" parent="1">
          <mxGeometry x="1612" y="365" width="120" height="60" as="geometry" />
        </mxCell>
      </root>
    </mxGraphModel>
  </diagram>
</mxfile>
